STARTFONT 2.1
FONT serifb12
SIZE 13 75 75
FONTBOUNDINGBOX 11 14 0 -3

STARTPROPERTIES 10
COPYRIGHT "Share and enjoy."
POINT_SIZE 130
WEIGHT 10
RESOLUTION_X 75
RESOLUTION_Y 75
X_HEIGHT 11
QUAD_WIDTH 11
DEFAULT_CHAR 0
FONT_DESCENT 3
FONT_ASCENT 11
ENDPROPERTIES

CHARS 125

STARTCHAR C002
ENCODING 2
SWIDTH 846 0
DWIDTH 11 0
BBX 11 14 0 -3
BITMAP
0000
0000
0600
0600
0000
0600
0400
1C00
1B00
1900
0E00
0000
0000
0000
ENDCHAR

STARTCHAR C003
ENCODING 3
SWIDTH 846 0
DWIDTH 11 0
BBX 11 14 0 -3
BITMAP
0000
0000
0000
0000
0000
0F00
1880
1980
1800
1880
0F00
0200
0A00
0E00
ENDCHAR

STARTCHAR C004
ENCODING 4
SWIDTH 846 0
DWIDTH 11 0
BBX 11 14 0 -3
BITMAP
0000
0000
0D80
0D80
0000
0000
0000
0000
0000
0000
0000
0000
0000
0000
ENDCHAR

STARTCHAR C005
ENCODING 5
SWIDTH 846 0
DWIDTH 11 0
BBX 11 14 0 -3
BITMAP
0200
0300
0180
0080
0000
0000
0000
0000
0000
0000
0000
0000
0000
0000
ENDCHAR

STARTCHAR C006
ENCODING 6
SWIDTH 846 0
DWIDTH 11 0
BBX 11 14 0 -3
BITMAP
0000
0000
1DC0
3340
3300
7F80
3300
3300
3300
3300
7F80
0000
0000
0000
ENDCHAR

STARTCHAR C007
ENCODING 7
SWIDTH 846 0
DWIDTH 11 0
BBX 11 14 0 -3
BITMAP
0000
0000
0400
0800
0C00
0C00
0000
0000
0000
0000
0000
0000
0000
0000
ENDCHAR

STARTCHAR C010
ENCODING 8
SWIDTH 846 0
DWIDTH 11 0
BBX 11 14 0 -3
BITMAP
0000
0000
0C00
0C00
0000
0C00
0C00
0C00
0C00
0C00
0C00
0000
0000
0000
ENDCHAR

STARTCHAR C011
ENCODING 9
SWIDTH 846 0
DWIDTH 11 0
BBX 11 14 0 -3
BITMAP
0000
0000
0000
0000
0000
0000
0000
0000
0000
0000
0000
0000
0000
0000
ENDCHAR

STARTCHAR C012
ENCODING 10
SWIDTH 846 0
DWIDTH 11 0
BBX 11 14 0 -3
BITMAP
0000
0000
0000
0000
0000
0000
0000
0000
0000
0000
0000
0000
0000
0000
ENDCHAR

STARTCHAR C013
ENCODING 11
SWIDTH 846 0
DWIDTH 11 0
BBX 11 14 0 -3
BITMAP
0080
0180
0300
0200
0000
0000
0000
0000
0000
0000
0000
0000
0000
0000
ENDCHAR

STARTCHAR C014
ENCODING 12
SWIDTH 846 0
DWIDTH 11 0
BBX 11 14 0 -3
BITMAP
0000
0000
0000
0000
0000
0000
0000
0000
0000
0000
0000
0000
0000
0000
ENDCHAR

STARTCHAR C015
ENCODING 13
SWIDTH 846 0
DWIDTH 11 0
BBX 11 14 0 -3
BITMAP
0000
0000
0000
0000
0000
0000
0000
0000
0000
0000
0000
0000
0000
0000
ENDCHAR

STARTCHAR C016
ENCODING 14
SWIDTH 846 0
DWIDTH 11 0
BBX 11 14 0 -3
BITMAP
0000
0780
0780
0000
0000
0000
0000
0000
0000
0000
0000
0000
0000
0000
ENDCHAR

STARTCHAR C017
ENCODING 15
SWIDTH 846 0
DWIDTH 11 0
BBX 11 14 0 -3
BITMAP
0000
0000
0000
0000
0000
0000
0000
0000
0000
0000
0000
0000
0000
0000
ENDCHAR

STARTCHAR C020
ENCODING 16
SWIDTH 846 0
DWIDTH 11 0
BBX 11 14 0 -3
BITMAP
0000
0E40
1FC0
1380
0000
0000
0000
0000
0000
0000
0000
0000
0000
0000
ENDCHAR

STARTCHAR C021
ENCODING 17
SWIDTH 846 0
DWIDTH 11 0
BBX 11 14 0 -3
BITMAP
0000
0000
3780
6D80
6C00
FF80
6D80
6D80
6D80
6D80
FFC0
0000
0000
0000
ENDCHAR

STARTCHAR C022
ENCODING 18
SWIDTH 846 0
DWIDTH 11 0
BBX 11 14 0 -3
BITMAP
0000
0000
3780
6D80
6D80
FF80
6D80
6D80
6D80
6D80
FFC0
0000
0000
0000
ENDCHAR

STARTCHAR C023
ENCODING 19
SWIDTH 846 0
DWIDTH 11 0
BBX 11 14 0 -3
BITMAP
0000
0000
0000
0000
0000
0000
FFE0
FFE0
0000
0000
0000
0000
0000
0000
ENDCHAR

STARTCHAR C024
ENCODING 20
SWIDTH 846 0
DWIDTH 11 0
BBX 11 14 0 -3
BITMAP
0000
0000
1F00
3300
3000
7F00
3300
3300
3300
3300
7F80
0000
0000
0000
ENDCHAR

STARTCHAR C025
ENCODING 21
SWIDTH 846 0
DWIDTH 11 0
BBX 11 14 0 -3
BITMAP
0000
0000
1F00
3300
3300
7F00
3300
3300
3300
3300
7F80
0000
0000
0000
ENDCHAR

STARTCHAR C026
ENCODING 22
SWIDTH 846 0
DWIDTH 11 0
BBX 11 14 0 -3
BITMAP
0000
0000
0000
0000
0000
0000
7F80
7F80
0000
0000
0000
0000
0000
0000
ENDCHAR

STARTCHAR C027
ENCODING 23
SWIDTH 846 0
DWIDTH 11 0
BBX 11 14 0 -3
BITMAP
18C0
0F80
0700
0000
0000
0000
0000
0000
0000
0000
0000
0000
0000
0000
ENDCHAR

STARTCHAR C030
ENCODING 24
SWIDTH 846 0
DWIDTH 11 0
BBX 11 14 0 -3
BITMAP
0000
0000
0000
0000
0000
0000
3F80
3F80
0000
0000
0000
0000
0000
0000
ENDCHAR

STARTCHAR C031
ENCODING 25
SWIDTH 846 0
DWIDTH 11 0
BBX 11 14 0 -3
BITMAP
0000
0000
0000
0000
0000
0000
0000
0000
0000
0000
0000
0000
0000
0000
ENDCHAR

STARTCHAR C032
ENCODING 26
SWIDTH 846 0
DWIDTH 11 0
BBX 11 14 0 -3
BITMAP
0000
0000
0000
0000
0000
0000
0000
0000
0000
0000
0000
0000
0000
0000
ENDCHAR

STARTCHAR C033
ENCODING 27
SWIDTH 846 0
DWIDTH 11 0
BBX 11 14 0 -3
BITMAP
0000
0000
0000
0000
0000
0000
0000
0000
0000
0000
0000
0000
0000
0000
ENDCHAR

STARTCHAR C034
ENCODING 28
SWIDTH 846 0
DWIDTH 11 0
BBX 11 14 0 -3
BITMAP
0000
0000
0000
0000
0000
0000
0000
0000
0000
0000
0000
0000
0000
0000
ENDCHAR

STARTCHAR C035
ENCODING 29
SWIDTH 846 0
DWIDTH 11 0
BBX 11 14 0 -3
BITMAP
0000
0000
0000
0000
0000
0000
0000
0000
0000
0000
0000
0000
0300
0300
ENDCHAR

STARTCHAR C036
ENCODING 30
SWIDTH 846 0
DWIDTH 11 0
BBX 11 14 0 -3
BITMAP
0000
0E40
1FC0
1380
0000
0000
0000
0000
0000
0000
0000
0000
0000
0000
ENDCHAR

STARTCHAR C037
ENCODING 31
SWIDTH 846 0
DWIDTH 11 0
BBX 11 14 0 -3
BITMAP
0200
0700
0D80
0700
0200
0000
0000
0000
0000
0000
0000
0000
0000
0000
ENDCHAR

STARTCHAR C040
ENCODING 32
SWIDTH 846 0
DWIDTH 11 0
BBX 11 14 0 -3
BITMAP
0000
0000
0000
0000
0000
0000
0000
0000
0000
0000
0000
0000
0000
0000
ENDCHAR

STARTCHAR !
ENCODING 33
SWIDTH 846 0
DWIDTH 11 0
BBX 11 14 0 -3
BITMAP
0000
0000
0C00
0C00
0C00
0C00
0C00
0C00
0000
0C00
0C00
0000
0000
0000
ENDCHAR

STARTCHAR "
ENCODING 34
SWIDTH 846 0
DWIDTH 11 0
BBX 11 14 0 -3
BITMAP
0000
0000
1B00
1B00
1B00
1B00
0000
0000
0000
0000
0000
0000
0000
0000
ENDCHAR

STARTCHAR #
ENCODING 35
SWIDTH 846 0
DWIDTH 11 0
BBX 11 14 0 -3
BITMAP
0000
0000
0D80
0D80
3FC0
1B00
3300
FF00
6C00
6C00
0000
0000
0000
0000
ENDCHAR

STARTCHAR $
ENCODING 36
SWIDTH 846 0
DWIDTH 11 0
BBX 11 14 0 -3
BITMAP
0000
0400
1F00
3580
3400
3C00
1F00
0780
2580
3580
1F00
0400
0000
0000
ENDCHAR

STARTCHAR %
ENCODING 37
SWIDTH 846 0
DWIDTH 11 0
BBX 11 14 0 -3
BITMAP
0000
3100
4F00
8A00
8E00
9400
6580
0E40
1440
3480
2300
0000
0000
0000
ENDCHAR

STARTCHAR &
ENCODING 38
SWIDTH 846 0
DWIDTH 11 0
BBX 11 14 0 -3
BITMAP
0000
0000
1C00
3600
3600
1C00
39C0
DD80
CE00
E700
7BC0
0000
0000
0000
ENDCHAR

STARTCHAR '
ENCODING 39
SWIDTH 846 0
DWIDTH 11 0
BBX 11 14 0 -3
BITMAP
0000
0000
0C00
0C00
0400
0800
0000
0000
0000
0000
0000
0000
0000
0000
ENDCHAR

STARTCHAR (
ENCODING 40
SWIDTH 846 0
DWIDTH 11 0
BBX 11 14 0 -3
BITMAP
0000
0200
0400
0800
0800
1800
1800
1800
1800
0800
0800
0400
0200
0000
ENDCHAR

STARTCHAR )
ENCODING 41
SWIDTH 846 0
DWIDTH 11 0
BBX 11 14 0 -3
BITMAP
0000
1000
0800
0C00
0400
0600
0600
0600
0600
0400
0C00
0800
1000
0000
ENDCHAR

STARTCHAR *
ENCODING 42
SWIDTH 846 0
DWIDTH 11 0
BBX 11 14 0 -3
BITMAP
6D80
3F00
0C00
1E00
3300
0000
0000
0000
0000
0000
0000
0000
0000
0000
ENDCHAR

STARTCHAR +
ENCODING 43
SWIDTH 846 0
DWIDTH 11 0
BBX 11 14 0 -3
BITMAP
0000
0000
0000
0000
0C00
0C00
0C00
7F80
0C00
0C00
0C00
0000
0000
0000
ENDCHAR

STARTCHAR ,
ENCODING 44
SWIDTH 846 0
DWIDTH 11 0
BBX 11 14 0 -3
BITMAP
0000
0000
0000
0000
0000
0000
0000
0000
0000
0C00
0C00
0400
0800
0000
ENDCHAR

STARTCHAR -
ENCODING 45
SWIDTH 846 0
DWIDTH 11 0
BBX 11 14 0 -3
BITMAP
0000
0000
0000
0000
0000
0000
0000
1F00
0000
0000
0000
0000
0000
0000
ENDCHAR

STARTCHAR .
ENCODING 46
SWIDTH 846 0
DWIDTH 11 0
BBX 11 14 0 -3
BITMAP
0000
0000
0000
0000
0000
0000
0000
0000
0000
0C00
0C00
0000
0000
0000
ENDCHAR

STARTCHAR /
ENCODING 47
SWIDTH 846 0
DWIDTH 11 0
BBX 11 14 0 -3
BITMAP
0000
0000
0300
0300
0600
0600
0C00
1C00
1800
3000
3000
0000
0000
0000
ENDCHAR

STARTCHAR 0
ENCODING 48
SWIDTH 846 0
DWIDTH 11 0
BBX 11 14 0 -3
BITMAP
0000
0000
0C00
1200
3300
3300
3300
3300
3300
1200
0C00
0000
0000
0000
ENDCHAR

STARTCHAR 1
ENCODING 49
SWIDTH 846 0
DWIDTH 11 0
BBX 11 14 0 -3
BITMAP
0000
0000
0600
0E00
1E00
0600
0600
0600
0600
0600
0F00
0000
0000
0000
ENDCHAR

STARTCHAR 2
ENCODING 50
SWIDTH 846 0
DWIDTH 11 0
BBX 11 14 0 -3
BITMAP
0000
0000
1C00
3E00
2600
0600
0600
0C00
1900
3F00
7F00
0000
0000
0000
ENDCHAR

STARTCHAR 3
ENCODING 51
SWIDTH 846 0
DWIDTH 11 0
BBX 11 14 0 -3
BITMAP
0000
0000
1C00
3600
0600
0600
1C00
0700
6300
6600
3C00
0000
0000
0000
ENDCHAR

STARTCHAR 4
ENCODING 52
SWIDTH 846 0
DWIDTH 11 0
BBX 11 14 0 -3
BITMAP
0000
0000
0600
0E00
0E00
1600
1600
2600
3F00
0600
0600
0000
0000
0000
ENDCHAR

STARTCHAR 5
ENCODING 53
SWIDTH 846 0
DWIDTH 11 0
BBX 11 14 0 -3
BITMAP
0000
0000
1F00
1E00
3000
3E00
3F00
0300
2100
7200
3C00
0000
0000
0000
ENDCHAR

STARTCHAR 6
ENCODING 54
SWIDTH 846 0
DWIDTH 11 0
BBX 11 14 0 -3
BITMAP
0000
0000
0600
1800
1000
3C00
3200
3300
3300
1200
0C00
0000
0000
0000
ENDCHAR

STARTCHAR 7
ENCODING 55
SWIDTH 846 0
DWIDTH 11 0
BBX 11 14 0 -3
BITMAP
0000
0000
1F00
3F00
2100
0200
0200
0400
0400
0800
0800
0000
0000
0000
ENDCHAR

STARTCHAR 8
ENCODING 56
SWIDTH 846 0
DWIDTH 11 0
BBX 11 14 0 -3
BITMAP
0000
0000
1E00
3300
3300
1A00
0C00
3700
3300
3300
1E00
0000
0000
0000
ENDCHAR

STARTCHAR 9
ENCODING 57
SWIDTH 846 0
DWIDTH 11 0
BBX 11 14 0 -3
BITMAP
0000
0000
0C00
1200
3300
3300
3300
1F00
0200
0600
1C00
0000
0000
0000
ENDCHAR

STARTCHAR :
ENCODING 58
SWIDTH 846 0
DWIDTH 11 0
BBX 11 14 0 -3
BITMAP
0000
0000
0000
0000
0000
0C00
0C00
0000
0000
0C00
0C00
0000
0000
0000
ENDCHAR

STARTCHAR ;
ENCODING 59
SWIDTH 846 0
DWIDTH 11 0
BBX 11 14 0 -3
BITMAP
0000
0000
0000
0000
0000
0C00
0C00
0000
0000
0C00
0C00
0400
0800
0000
ENDCHAR

STARTCHAR <
ENCODING 60
SWIDTH 846 0
DWIDTH 11 0
BBX 11 14 0 -3
BITMAP
0000
0000
0180
0300
0600
0C00
1800
1C00
0600
0300
0180
0000
0000
0000
ENDCHAR

STARTCHAR =
ENCODING 61
SWIDTH 846 0
DWIDTH 11 0
BBX 11 14 0 -3
BITMAP
0000
0000
0000
0000
0000
0000
1F00
1F00
1F00
1F00
0000
0000
0000
0000
ENDCHAR

STARTCHAR >
ENCODING 62
SWIDTH 846 0
DWIDTH 11 0
BBX 11 14 0 -3
BITMAP
0000
0000
3000
1800
0C00
0600
0300
0700
0C00
1800
3000
0000
0000
0000
ENDCHAR

STARTCHAR ?
ENCODING 63
SWIDTH 846 0
DWIDTH 11 0
BBX 11 14 0 -3
BITMAP
0000
0000
0E00
1300
1B00
0300
0600
0C00
0000
0C00
0C00
0000
0000
0000
ENDCHAR

STARTCHAR @
ENCODING 64
SWIDTH 846 0
DWIDTH 11 0
BBX 11 14 0 -3
BITMAP
0000
1F00
3180
4080
4D40
9340
9140
96C0
5B00
4040
3180
1F00
0000
0000
ENDCHAR

STARTCHAR A
ENCODING 65
SWIDTH 846 0
DWIDTH 11 0
BBX 11 14 0 -3
BITMAP
0000
0000
0400
0E00
0E00
0A00
1300
1F00
2180
2180
73C0
0000
0000
0000
ENDCHAR

STARTCHAR B
ENCODING 66
SWIDTH 846 0
DWIDTH 11 0
BBX 11 14 0 -3
BITMAP
0000
0000
7E00
3300
3300
3300
3E00
3380
3180
3180
7F00
0000
0000
0000
ENDCHAR

STARTCHAR C
ENCODING 67
SWIDTH 846 0
DWIDTH 11 0
BBX 11 14 0 -3
BITMAP
0000
0000
1E80
3180
6080
6000
6000
6000
6080
3080
1F00
0000
0000
0000
ENDCHAR

STARTCHAR D
ENCODING 68
SWIDTH 846 0
DWIDTH 11 0
BBX 11 14 0 -3
BITMAP
0000
0000
FF00
6180
60C0
60C0
60C0
60C0
60C0
6180
FF00
0000
0000
0000
ENDCHAR

STARTCHAR E
ENCODING 69
SWIDTH 846 0
DWIDTH 11 0
BBX 11 14 0 -3
BITMAP
0000
0000
7F80
3080
3080
3200
3E00
3200
3080
3080
7F80
0000
0000
0000
ENDCHAR

STARTCHAR F
ENCODING 70
SWIDTH 846 0
DWIDTH 11 0
BBX 11 14 0 -3
BITMAP
0000
0000
7F80
3080
3080
3200
3E00
3200
3000
3000
7800
0000
0000
0000
ENDCHAR

STARTCHAR G
ENCODING 71
SWIDTH 846 0
DWIDTH 11 0
BBX 11 14 0 -3
BITMAP
0000
0000
3E80
6180
C080
C000
C000
C1C0
C080
6180
3E80
0000
0000
0000
ENDCHAR

STARTCHAR H
ENCODING 72
SWIDTH 846 0
DWIDTH 11 0
BBX 11 14 0 -3
BITMAP
0000
0000
F3C0
6180
6180
6180
7F80
6180
6180
6180
F3C0
0000
0000
0000
ENDCHAR

STARTCHAR I
ENCODING 73
SWIDTH 846 0
DWIDTH 11 0
BBX 11 14 0 -3
BITMAP
0000
0000
1E00
0C00
0C00
0C00
0C00
0C00
0C00
0C00
1E00
0000
0000
0000
ENDCHAR

STARTCHAR J
ENCODING 74
SWIDTH 846 0
DWIDTH 11 0
BBX 11 14 0 -3
BITMAP
0000
0000
0F00
0600
0600
0600
0600
0600
2600
2600
1C00
0000
0000
0000
ENDCHAR

STARTCHAR K
ENCODING 75
SWIDTH 846 0
DWIDTH 11 0
BBX 11 14 0 -3
BITMAP
0000
0000
7BC0
3100
3200
3400
3C00
3F00
3380
31C0
7BE0
0000
0000
0000
ENDCHAR

STARTCHAR L
ENCODING 76
SWIDTH 846 0
DWIDTH 11 0
BBX 11 14 0 -3
BITMAP
0000
0000
7800
3000
3000
3000
3000
3000
3080
3080
7F80
0000
0000
0000
ENDCHAR

STARTCHAR M
ENCODING 77
SWIDTH 846 0
DWIDTH 11 0
BBX 11 14 0 -3
BITMAP
0000
0000
E1C0
6180
7180
7380
5380
5580
5D80
4980
E9C0
0000
0000
0000
ENDCHAR

STARTCHAR N
ENCODING 78
SWIDTH 846 0
DWIDTH 11 0
BBX 11 14 0 -3
BITMAP
0000
0000
E1C0
7080
7080
5880
5C80
4E80
4380
4380
E180
0000
0000
0000
ENDCHAR

STARTCHAR O
ENCODING 79
SWIDTH 846 0
DWIDTH 11 0
BBX 11 14 0 -3
BITMAP
0000
0000
1F00
3180
60C0
60C0
60C0
60C0
60C0
3180
1F00
0000
0000
0000
ENDCHAR

STARTCHAR P
ENCODING 80
SWIDTH 846 0
DWIDTH 11 0
BBX 11 14 0 -3
BITMAP
0000
0000
3F00
1980
1980
1980
1980
1F00
1800
1800
3C00
0000
0000
0000
ENDCHAR

STARTCHAR Q
ENCODING 81
SWIDTH 846 0
DWIDTH 11 0
BBX 11 14 0 -3
BITMAP
0000
0000
1F00
3180
60C0
60C0
60C0
60C0
60C0
3180
1F00
0600
0300
0180
ENDCHAR

STARTCHAR R
ENCODING 82
SWIDTH 846 0
DWIDTH 11 0
BBX 11 14 0 -3
BITMAP
0000
0000
7E00
3300
3300
3300
3E00
3700
3300
3180
79C0
0000
0000
0000
ENDCHAR

STARTCHAR S
ENCODING 83
SWIDTH 846 0
DWIDTH 11 0
BBX 11 14 0 -3
BITMAP
0000
0000
1D00
3300
3100
3800
1E00
2F80
2180
3180
2F00
0000
0000
0000
ENDCHAR

STARTCHAR T
ENCODING 84
SWIDTH 846 0
DWIDTH 11 0
BBX 11 14 0 -3
BITMAP
0000
0000
7F80
4C80
4C80
0C00
0C00
0C00
0C00
0C00
1E00
0000
0000
0000
ENDCHAR

STARTCHAR U
ENCODING 85
SWIDTH 846 0
DWIDTH 11 0
BBX 11 14 0 -3
BITMAP
0000
0000
F1C0
6080
6080
6080
6080
6080
6080
3180
1F00
0000
0000
0000
ENDCHAR

STARTCHAR V
ENCODING 86
SWIDTH 846 0
DWIDTH 11 0
BBX 11 14 0 -3
BITMAP
0000
0000
F1C0
6080
7080
3100
3100
3A00
1C00
0C00
0C00
0000
0000
0000
ENDCHAR

STARTCHAR W
ENCODING 87
SWIDTH 846 0
DWIDTH 11 0
BBX 11 14 0 -3
BITMAP
0000
0000
FFE0
6640
6640
6680
3F80
3B80
1900
1100
1100
0000
0000
0000
ENDCHAR

STARTCHAR X
ENCODING 88
SWIDTH 846 0
DWIDTH 11 0
BBX 11 14 0 -3
BITMAP
0000
0000
7B80
3100
1A00
1A00
0C00
1E00
1600
2300
7780
0000
0000
0000
ENDCHAR

STARTCHAR Y
ENCODING 89
SWIDTH 846 0
DWIDTH 11 0
BBX 11 14 0 -3
BITMAP
0000
0000
7B80
3100
3100
1A00
1A00
0C00
0C00
0C00
1E00
0000
0000
0000
ENDCHAR

STARTCHAR Z
ENCODING 90
SWIDTH 846 0
DWIDTH 11 0
BBX 11 14 0 -3
BITMAP
0000
0000
3F80
2180
2300
0300
0600
0C00
1880
3080
3F80
0000
0000
0000
ENDCHAR

STARTCHAR [
ENCODING 91
SWIDTH 846 0
DWIDTH 11 0
BBX 11 14 0 -3
BITMAP
0000
1F00
1800
1800
1800
1800
1800
1800
1800
1800
1800
1800
1800
1F00
ENDCHAR

STARTCHAR \
ENCODING 92
SWIDTH 846 0
DWIDTH 11 0
BBX 11 14 0 -3
BITMAP
0000
0000
3000
3000
1800
1800
0C00
0E00
0600
0300
0300
0000
0000
0000
ENDCHAR

STARTCHAR ]
ENCODING 93
SWIDTH 846 0
DWIDTH 11 0
BBX 11 14 0 -3
BITMAP
0000
1F00
0300
0300
0300
0300
0300
0300
0300
0300
0300
0300
0300
1F00
ENDCHAR

STARTCHAR ^
ENCODING 94
SWIDTH 846 0
DWIDTH 11 0
BBX 11 14 0 -3
BITMAP
0000
0000
0000
0C00
1E00
3F00
6D80
4C80
0C00
0C00
0000
0000
0000
0000
ENDCHAR

STARTCHAR _
ENCODING 95
SWIDTH 846 0
DWIDTH 11 0
BBX 11 14 0 -3
BITMAP
0000
0000
0000
0C00
1800
3000
7F80
7F80
1800
0C00
0000
0000
0000
0000
ENDCHAR

STARTCHAR `
ENCODING 96
SWIDTH 846 0
DWIDTH 11 0
BBX 11 14 0 -3
BITMAP
0000
0000
0400
0800
0C00
0C00
0000
0000
0000
0000
0000
0000
0000
0000
ENDCHAR

STARTCHAR a
ENCODING 97
SWIDTH 846 0
DWIDTH 11 0
BBX 11 14 0 -3
BITMAP
0000
0000
0000
0000
0000
0E00
1300
1F00
3300
3300
1D80
0000
0000
0000
ENDCHAR

STARTCHAR b
ENCODING 98
SWIDTH 846 0
DWIDTH 11 0
BBX 11 14 0 -3
BITMAP
0000
0000
3800
1800
1800
1B00
1D80
1980
1980
1980
1700
0000
0000
0000
ENDCHAR

STARTCHAR c
ENCODING 99
SWIDTH 846 0
DWIDTH 11 0
BBX 11 14 0 -3
BITMAP
0000
0000
0000
0000
0000
1E00
3100
3300
3000
3100
1E00
0000
0000
0000
ENDCHAR

STARTCHAR d
ENCODING 100
SWIDTH 846 0
DWIDTH 11 0
BBX 11 14 0 -3
BITMAP
0000
0000
0700
0300
0300
1B00
3700
3300
3300
3300
1D80
0000
0000
0000
ENDCHAR

STARTCHAR e
ENCODING 101
SWIDTH 846 0
DWIDTH 11 0
BBX 11 14 0 -3
BITMAP
0000
0000
0000
0000
0000
1E00
3300
3F00
3000
3100
1E00
0000
0000
0000
ENDCHAR

STARTCHAR f
ENCODING 102
SWIDTH 846 0
DWIDTH 11 0
BBX 11 14 0 -3
BITMAP
0000
0000
0700
0D00
0C00
1E00
0C00
0C00
0C00
0C00
1E00
0000
0000
0000
ENDCHAR

STARTCHAR g
ENCODING 103
SWIDTH 846 0
DWIDTH 11 0
BBX 11 14 0 -3
BITMAP
0000
0000
0000
0000
0000
1E80
3300
3F00
1000
3E00
3F00
6300
6300
3E00
ENDCHAR

STARTCHAR h
ENCODING 104
SWIDTH 846 0
DWIDTH 11 0
BBX 11 14 0 -3
BITMAP
0000
0000
3800
1800
1800
1B00
1D80
1980
1980
1980
3BC0
0000
0000
0000
ENDCHAR

STARTCHAR i
ENCODING 105
SWIDTH 846 0
DWIDTH 11 0
BBX 11 14 0 -3
BITMAP
0000
0000
0C00
0C00
0000
1C00
0C00
0C00
0C00
0C00
1E00
0000
0000
0000
ENDCHAR

STARTCHAR j
ENCODING 106
SWIDTH 846 0
DWIDTH 11 0
BBX 11 14 0 -3
BITMAP
0000
0000
0600
0600
0000
0E00
0600
0600
0600
0600
0600
1600
1600
0C00
ENDCHAR

STARTCHAR k
ENCODING 107
SWIDTH 846 0
DWIDTH 11 0
BBX 11 14 0 -3
BITMAP
0000
0000
3800
1800
1800
1B80
1900
1E00
1B00
1B80
39C0
0000
0000
0000
ENDCHAR

STARTCHAR l
ENCODING 108
SWIDTH 846 0
DWIDTH 11 0
BBX 11 14 0 -3
BITMAP
0000
0000
1C00
0C00
0C00
0C00
0C00
0C00
0C00
0C00
1E00
0000
0000
0000
ENDCHAR

STARTCHAR m
ENCODING 109
SWIDTH 846 0
DWIDTH 11 0
BBX 11 14 0 -3
BITMAP
0000
0000
0000
0000
0000
EF80
76C0
64C0
64C0
64C0
EEE0
0000
0000
0000
ENDCHAR

STARTCHAR n
ENCODING 110
SWIDTH 846 0
DWIDTH 11 0
BBX 11 14 0 -3
BITMAP
0000
0000
0000
0000
0000
3B00
1D80
1980
1980
1980
3DC0
0000
0000
0000
ENDCHAR

STARTCHAR o
ENCODING 111
SWIDTH 846 0
DWIDTH 11 0
BBX 11 14 0 -3
BITMAP
0000
0000
0000
0000
0000
1E00
3300
3300
3300
3300
1E00
0000
0000
0000
ENDCHAR

STARTCHAR p
ENCODING 112
SWIDTH 846 0
DWIDTH 11 0
BBX 11 14 0 -3
BITMAP
0000
0000
0000
0000
0000
3B00
1D80
1980
1980
1D80
1B00
1800
1800
3C00
ENDCHAR

STARTCHAR q
ENCODING 113
SWIDTH 846 0
DWIDTH 11 0
BBX 11 14 0 -3
BITMAP
0000
0000
0000
0000
0000
1B00
3700
3300
3300
3700
1B00
0300
0300
0780
ENDCHAR

STARTCHAR r
ENCODING 114
SWIDTH 846 0
DWIDTH 11 0
BBX 11 14 0 -3
BITMAP
0000
0000
0000
0000
0000
1F00
0D00
0C00
0C00
0C00
1E00
0000
0000
0000
ENDCHAR

STARTCHAR s
ENCODING 115
SWIDTH 846 0
DWIDTH 11 0
BBX 11 14 0 -3
BITMAP
0000
0000
0000
0000
0000
0E00
1900
1E00
0700
1300
1E00
0000
0000
0000
ENDCHAR

STARTCHAR t
ENCODING 116
SWIDTH 846 0
DWIDTH 11 0
BBX 11 14 0 -3
BITMAP
0000
0000
0000
0400
0C00
1E00
0C00
0C00
0C00
0D00
0600
0000
0000
0000
ENDCHAR

STARTCHAR u
ENCODING 117
SWIDTH 846 0
DWIDTH 11 0
BBX 11 14 0 -3
BITMAP
0000
0000
0000
0000
0000
3B80
1980
1980
1980
1B80
0DC0
0000
0000
0000
ENDCHAR

STARTCHAR v
ENCODING 118
SWIDTH 846 0
DWIDTH 11 0
BBX 11 14 0 -3
BITMAP
0000
0000
0000
0000
0000
7B80
3100
3B00
1A00
0C00
0C00
0000
0000
0000
ENDCHAR

STARTCHAR w
ENCODING 119
SWIDTH 846 0
DWIDTH 11 0
BBX 11 14 0 -3
BITMAP
0000
0000
0000
0000
0000
F6E0
6440
76C0
3F80
1B00
1100
0000
0000
0000
ENDCHAR

STARTCHAR x
ENCODING 120
SWIDTH 846 0
DWIDTH 11 0
BBX 11 14 0 -3
BITMAP
0000
0000
0000
0000
0000
3980
1D00
0E00
0F00
1B80
31C0
0000
0000
0000
ENDCHAR

STARTCHAR y
ENCODING 121
SWIDTH 846 0
DWIDTH 11 0
BBX 11 14 0 -3
BITMAP
0000
0000
0000
0000
0000
7B80
3100
3B00
1A00
0C00
0C00
2800
7800
3000
ENDCHAR

STARTCHAR z
ENCODING 122
SWIDTH 846 0
DWIDTH 11 0
BBX 11 14 0 -3
BITMAP
0000
0000
0000
0000
0000
3F00
2300
0E00
1800
3100
3F00
0000
0000
0000
ENDCHAR

STARTCHAR {
ENCODING 123
SWIDTH 846 0
DWIDTH 11 0
BBX 11 14 0 -3
BITMAP
0000
0700
0C00
0C00
0C00
0C00
0C00
3C00
0C00
0C00
0C00
0C00
0C00
0700
ENDCHAR

STARTCHAR |
ENCODING 124
SWIDTH 846 0
DWIDTH 11 0
BBX 11 14 0 -3
BITMAP
0000
0000
0C00
0C00
0C00
0C00
0C00
0C00
0C00
0C00
0C00
0C00
0C00
0000
ENDCHAR

STARTCHAR }
ENCODING 125
SWIDTH 846 0
DWIDTH 11 0
BBX 11 14 0 -3
BITMAP
0000
3800
0C00
0C00
0C00
0C00
0C00
0F00
0C00
0C00
0C00
0C00
0C00
3800
ENDCHAR

STARTCHAR ~
ENCODING 126
SWIDTH 846 0
DWIDTH 11 0
BBX 11 14 0 -3
BITMAP
0000
0000
0000
0000
0000
0000
1980
7F00
0000
0000
0000
0000
0000
0000
ENDCHAR
ENDFONT
